<svg xmlns="http://www.w3.org/2000/svg" xmlns:xlink="http://www.w3.org/1999/xlink" version="1.1" id="Capa_1" x="0px" y="0px" width="100px" height="100px" viewBox="0 0 100 100" enable-background="new 0 0 100 100" xml:space="preserve">
<path d="M87.257,7.751v84.498H12.743V7.751H87.257 M87.257,5H12.743c-1.519,0-2.751,1.232-2.751,2.751v84.498  c0,1.519,1.232,2.751,2.751,2.751h74.514c1.519,0,2.751-1.232,2.751-2.751V7.751C90.008,6.232,88.777,5,87.257,5L87.257,5z   M81.297,22.826c0-1.521-1.23-2.751-2.751-2.751H51.38c-1.521,0-2.751,1.23-2.751,2.751s1.23,2.751,2.751,2.751h27.166  C80.066,25.577,81.297,24.347,81.297,22.826z M81.297,35.7c0-1.521-1.23-2.751-2.751-2.751H51.38c-1.521,0-2.751,1.23-2.751,2.751  c0,1.521,1.23,2.751,2.751,2.751h27.166C80.066,38.451,81.297,37.221,81.297,35.7z M81.297,48.574c0-1.521-1.23-2.751-2.751-2.751  H51.38c-1.521,0-2.751,1.23-2.751,2.751c0,1.521,1.23,2.751,2.751,2.751h27.166C80.066,51.325,81.297,50.095,81.297,48.574z   M81.297,61.45c0-1.521-1.23-2.751-2.751-2.751H51.38c-1.521,0-2.751,1.23-2.751,2.751c0,1.521,1.23,2.751,2.751,2.751h27.166  C80.066,64.201,81.297,62.971,81.297,61.45z M81.297,74.2c0-1.521-1.23-2.751-2.751-2.751H65.38c-1.521,0-2.751,1.23-2.751,2.751  s1.23,2.751,2.751,2.751h13.166C80.066,76.951,81.297,75.721,81.297,74.2z M40.435,48.775c0-4.486-2.622-7.108-7.815-9.225  c-4.384-1.816-6.252-3.127-6.252-5.746c0-2.018,1.464-4.336,5.346-4.336c3.226,0,5.292,1.11,6.351,1.714l1.26-3.329  c-1.276-0.748-3.055-1.428-5.488-1.662v-4.992h-1.065h-3.127h-0.909v5.309c-4.101,1.006-6.702,4.001-6.702,7.9  c0,4.384,3.175,6.706,8.317,8.72c3.732,1.513,5.698,3.226,5.698,5.999c0,2.875-2.421,4.94-6.002,4.94  c-2.821,0-5.443-0.956-7.259-2.165l-1.209,3.377c1.653,1.18,4.41,2.023,7.156,2.171v5.139h0.557h3.175h1.368v-5.581  C38.134,55.767,40.435,52.388,40.435,48.775z"/>
</svg>