<svg xmlns="http://www.w3.org/2000/svg" xmlns:xlink="http://www.w3.org/1999/xlink" version="1.1" id="Your_Icon" x="0px" y="0px" width="100px" height="100px" viewBox="0 0 100 100" enable-background="new 0 0 100 100" xml:space="preserve">
<path d="M74.93,36.262"/>
<path d="M81.496,24.148c-0.58-0.24-1.248-0.107-1.693,0.336l-6.641,6.632c-3.059-2.403-6.461-4.307-10.16-5.673  c-0.805-0.297-1.697,0.114-1.996,0.919c-0.297,0.805,0.113,1.698,0.92,1.995c3.271,1.208,6.291,2.878,9.018,4.973l-8.973,8.96  c-0.443,0.444-0.576,1.112-0.336,1.692c0.238,0.581,0.805,0.959,1.434,0.959l17.82,0.013c0.41,0,0.807-0.163,1.098-0.453  c0.291-0.292,0.455-0.687,0.455-1.099l0.014-17.819C82.457,24.956,82.078,24.389,81.496,24.148z M79.336,41.849l-12.516-0.01  l12.525-12.507L79.336,41.849z"/>
<path d="M18.789,42.538c0.26,0.166,0.55,0.246,0.837,0.246c0.511,0,1.013-0.252,1.308-0.716c3.482-5.432,8.424-9.771,14.294-12.547  c0.776-0.367,1.107-1.292,0.741-2.068c-0.367-0.775-1.293-1.108-2.068-0.74c-6.398,3.025-11.786,7.756-15.582,13.68  C17.856,41.114,18.066,42.075,18.789,42.538z"/>
<path d="M32.478,69H14.666C10.99,69,8,71.999,8,75.673v8.906C8,85.438,8.695,86,9.553,86H37.59c0.858,0,1.41-0.562,1.41-1.421  v-8.906C39,71.999,36.154,69,32.478,69z M36,83h-4v-5.429c0-0.857-0.642-1.553-1.5-1.553c-0.857,0-1.5,0.695-1.5,1.553V83H18v-5.429  c0-0.857-0.643-1.553-1.5-1.553c-0.858,0-1.5,0.695-1.5,1.553V83h-4v-7.327C11,73.711,12.703,72,14.666,72h17.812  C34.44,72,36,73.711,36,75.673V83z"/>
<path d="M23.572,48.274c-5.408,0-9.807,4.4-9.807,9.808c0,5.407,4.398,9.806,9.807,9.806c5.407,0,9.807-4.398,9.807-9.806  C33.379,52.674,28.979,48.274,23.572,48.274z M23.572,64.781c-3.695,0-6.7-3.006-6.7-6.699c0-3.695,3.005-6.701,6.7-6.701  s6.7,3.006,6.7,6.701C30.272,61.775,27.267,64.781,23.572,64.781z"/>
<path d="M84.459,69H66.645C62.971,69,60,72.228,60,75.903v8.906c0,0.857,0.676,1.19,1.533,1.19H89.57c0.857,0,1.43-0.333,1.43-1.19  v-8.906C91,72.228,88.135,69,84.459,69z M88,83h-4v-5.2c0-0.857-0.642-1.553-1.499-1.553S81,76.942,81,77.8V83H70v-5.2  c0-0.857-0.643-1.553-1.5-1.553S67,76.942,67,77.8V83h-4v-7.097C63,73.94,64.684,72,66.645,72h17.814C86.42,72,88,73.94,88,75.903  V83z"/>
<path d="M75.551,48.503c-5.408,0-9.807,4.4-9.807,9.807s4.398,9.808,9.807,9.808s9.807-4.4,9.807-9.808S80.959,48.503,75.551,48.503  z M75.551,65.011c-3.693,0-6.699-3.006-6.699-6.7s3.006-6.7,6.699-6.7c3.695,0,6.701,3.006,6.701,6.7S79.246,65.011,75.551,65.011z"/>
<path d="M50.785,25.394C50.457,25.253,50,25.115,50,24.977v-7.104c1,0.55,1.572,1.593,1.611,1.672c0.361,0.77,1.2,1.107,1.978,0.75  c0.779-0.358,1.237-1.28,0.878-2.06C54.406,18.101,53,15.316,50,14.598v-1.045C50,12.695,49.358,12,48.499,12  C47.641,12,47,12.695,47,13.553v0.998c-4,0.538-5.573,2.825-5.573,5.931c0,2.818,2.573,4.839,5.573,6.439v9.146  c-3-0.539-3.979-2.241-4.491-3.05c-0.459-0.726-1.523-0.941-2.247-0.482c-0.725,0.458-0.786,1.417-0.327,2.143  C40.554,35.655,42,38.6,47,39.222v1.323c0,0.857,0.641,1.553,1.499,1.553c0.859,0,1.501-0.696,1.501-1.553v-1.332  c4-0.642,6.04-3.633,6.04-6.542C56.04,30.118,55.564,27.453,50.785,25.394z M47,23.334c-2-1.04-2.467-1.995-2.467-2.853  c0-1.372,0.467-2.367,2.467-2.759V23.334z M50,36.051v-7.67c3,1.372,3.012,2.666,3.012,4.291C53.012,33.81,52,35.495,50,36.051z"/>
</svg>