<svg xmlns="http://www.w3.org/2000/svg" xmlns:xlink="http://www.w3.org/1999/xlink" version="1.1" id="Layer_1" x="0px" y="0px" width="61.3861386139px" height="100px" viewBox="0 0 62.082 101" enable-background="new 0 0 62.082 101" xml:space="preserve">
<path d="M52.727,14.2h-3.269V0.08H13.157V14.2H9.889c-2.462,0-4.458,1.996-4.458,4.458v7.526L3.574,3.59  c0-1.93-0.8-3.495-1.787-3.495C0.8,0.095,0,1.66,0,3.59v36.176c0,1.93,0.96,3.494,1.947,3.494h2.65c0.288,0,0.573-0.136,0.833-0.372  v53.34c0,2.463,1.996,4.459,4.458,4.459h42.838c2.463,0,4.459-1.996,4.459-4.459V32.791H5.431v-2.007h9.735V2.088h32.283v28.696  h9.736V18.659C57.186,16.196,55.189,14.2,52.727,14.2z M21.839,93.74c0,0.246-0.2,0.445-0.445,0.445h-8.895  c-0.246,0-0.445-0.199-0.445-0.445v-4.661c0-0.246,0.199-0.446,0.445-0.446h8.895c0.245,0,0.445,0.2,0.445,0.446V93.74z   M21.839,85.939c0,0.246-0.2,0.445-0.445,0.445h-8.895c-0.246,0-0.445-0.199-0.445-0.445v-4.66c0-0.246,0.199-0.446,0.445-0.446  h8.895c0.245,0,0.445,0.2,0.445,0.446V85.939z M21.839,78.41c0,0.246-0.2,0.445-0.445,0.445h-8.895  c-0.246,0-0.445-0.199-0.445-0.445v-4.66c0-0.247,0.199-0.445,0.445-0.445h8.895c0.245,0,0.445,0.198,0.445,0.445V78.41z   M36.2,93.74c0,0.246-0.199,0.445-0.445,0.445h-8.894c-0.247,0-0.446-0.199-0.446-0.445v-4.661c0-0.246,0.199-0.446,0.446-0.446  h8.894c0.246,0,0.445,0.2,0.445,0.446V93.74z M36.2,85.939c0,0.246-0.199,0.445-0.445,0.445h-8.894  c-0.247,0-0.446-0.199-0.446-0.445v-4.66c0-0.246,0.199-0.445,0.446-0.445h8.894c0.246,0,0.445,0.199,0.445,0.445V85.939z   M36.2,78.41c0,0.246-0.199,0.445-0.445,0.445h-8.894c-0.247,0-0.446-0.199-0.446-0.445v-4.66c0-0.247,0.199-0.445,0.446-0.445  h8.894c0.246,0,0.445,0.198,0.445,0.445V78.41z M50.562,93.74c0,0.246-0.199,0.445-0.446,0.445h-8.894  c-0.246,0-0.445-0.199-0.445-0.445v-4.661c0-0.246,0.199-0.446,0.445-0.446h8.894c0.247,0,0.446,0.2,0.446,0.446V93.74z   M50.562,85.939c0,0.246-0.199,0.445-0.446,0.445h-8.894c-0.246,0-0.445-0.199-0.445-0.445v-4.66c0-0.246,0.199-0.445,0.445-0.445  h8.894c0.247,0,0.446,0.199,0.446,0.445V85.939z M50.562,78.41c0,0.246-0.199,0.445-0.446,0.445h-8.894  c-0.246,0-0.445-0.199-0.445-0.445v-4.66c0-0.247,0.199-0.445,0.445-0.445h8.894c0.247,0,0.446,0.198,0.446,0.445V78.41z   M10.229,44.928c0-2.462,1.996-4.459,4.459-4.459h33.238c2.463,0,4.461,1.997,4.461,4.459v20.345c0,2.463-1.998,4.459-4.461,4.459  H14.688c-2.463,0-4.459-1.996-4.459-4.459V44.928z"/>
<path d="M30.719,61.659c-1.947,0-3.714-0.63-4.973-1.318l-0.897,3.505c1.139,0.629,3.085,1.199,5.093,1.289v2.846h2.965v-3.086  c3.444-0.568,5.303-2.846,5.303-5.512c0-2.726-1.408-4.374-4.974-5.631c-2.576-0.93-3.624-1.588-3.624-2.547  c0-0.838,0.628-1.707,2.575-1.707c2.158,0,3.564,0.688,4.314,1.048l0.896-3.385c-1.049-0.479-2.396-0.928-4.373-0.988v-2.636H30.09  v2.845c-3.205,0.6-5.063,2.667-5.063,5.332c0,2.906,2.188,4.404,5.394,5.481c2.247,0.75,3.204,1.469,3.204,2.606  C33.625,60.971,32.457,61.659,30.719,61.659z"/>
<path d="M60.823,19.19c-0.695,0-1.259,0.564-1.259,1.258v72.479c0,0.695,0.562,1.261,1.259,1.261s1.259-0.564,1.259-1.261V20.448  C62.082,19.754,61.52,19.19,60.823,19.19z"/>
</svg>