<svg xmlns="http://www.w3.org/2000/svg" xmlns:xlink="http://www.w3.org/1999/xlink" version="1.1" x="0px" y="0px" width="100px" height="100px" viewBox="0 0 100 100" enable-background="new 0 0 100 100" xml:space="preserve" xmlns:xml="http://www.w3.org/XML/1998/namespace" data-ember-extension="1">
	<g id="Your_Icon">
		<path d="M-207.871,49.177h-10.327c-9.368-0.281-22.102-1.467-24.625-5.749c-0.662-1.125-0.545-2.396,0.366-3.896   c1.422-2.531,4.979-4.831,9.29-6.243c-0.55,0.694-0.825,1.387-0.828,2.068c-0.007,1.486,1.267,2.782,3.684,3.751   c4.917,1.975,13.113,2.066,15.672-0.634c0.64-0.674,1.228-1.851,0.355-3.701c-2.152-2.753-6.567-4.088-12.064-3.668   c-1.159,0.088-2.313,0.248-3.448,0.471c1.254-0.757,2.957-1.594,5.26-2.495l-0.294-0.754c-3.218,1.259-5.596,2.515-7.122,3.759   c-5.144,1.411-9.538,4.071-11.202,7.037c-1.06,1.745-1.184,3.33-0.366,4.718c1.724,2.924,7.566,4.5,14.042,5.337h-19.155v0.81   h29.906c2.023,0.067,3.903,0.09,5.514,0.09c2.987,0,5.045-0.077,5.359-0.09c0.221-0.008,0.395-0.193,0.39-0.413   C-207.47,49.354-207.65,49.177-207.871,49.177z M-231.552,32.81c1.696-0.448,3.476-0.761,5.265-0.896   c5.238-0.408,9.382,0.824,11.315,3.278c0.515,1.109,0.432,2-0.257,2.725c-2.255,2.377-10.239,2.261-14.781,0.438   c-1.188-0.475-3.183-1.498-3.175-2.994C-233.183,34.8-232.88,33.928-231.552,32.81z"/>
		<path d="M-184.434,51.257c0.428-1.105,0.283-2.35-0.387-3.329s-1.778-1.563-2.965-1.563h-9.055   c0.462-1.265,0.582-2.602,0.347-3.956c-0.483-2.78-2.41-5.371-5.572-7.494c-2.431-1.626-5.353-2.776-8.711-3.43   c-3.093-4.771-9.23-7.562-16.868-7.562c-6.968,0-13.661,2.266-17.464,5.915c-3.048,2.926-3.679,5.752-3.476,7.949   c-3.964,2.601-5.822,5.718-6.602,8.577h-9.03c-1.187,0-2.295,0.584-2.965,1.563c-0.67,0.979-0.814,2.224-0.384,3.329   c0.319,0.823,7.603,19.056,25.677,21.24c0.007,1.979,1.612,3.58,3.593,3.58h24.59c1.979,0,3.585-1.601,3.592-3.58   C-192.039,70.312-184.756,52.08-184.434,51.257z M-213.705,69.119v3.366h-24.59v-3.366c-18.488,0-25.92-19.162-25.92-19.162h12.132   c0.068-5.061,3.321-8.298,7.736-10.444c-1.167-2.05-1.049-4.42,1.726-7.083c3.179-3.048,9.153-4.915,14.977-4.915   c6.224,0,12.274,2.13,14.562,7.223l-0.005,0.007c3.266,0.442,6.396,1.396,9.021,3.154c3.49,2.342,5.318,5.564,3.186,8.455   c0,0-2.499,3.08-4.716,3.604h17.812C-187.785,49.957-195.218,69.119-213.705,69.119z"/>
		<path d="M-46.435,54.004c0.429-1.104,0.285-2.351-0.386-3.329c-0.67-0.979-1.778-1.563-2.965-1.563h-76.43   c-1.187,0-2.295,0.585-2.966,1.563c-0.669,0.979-0.813,2.225-0.383,3.329c0.319,0.823,7.603,19.057,25.677,21.24   c0.007,1.979,1.611,3.58,3.592,3.58h24.589c1.981,0,3.586-1.601,3.593-3.58C-54.039,73.061-46.755,54.827-46.435,54.004z    M-75.706,71.866v3.366h-24.589v-3.366c-18.488,0-25.92-19.162-25.92-19.162h76.43C-49.785,52.704-57.218,71.866-75.706,71.866z"/>
		<path d="M-91.345,39.685c0.495,0.717,0.647,1.717,0.401,2.609c-0.166,0.603-0.592,1.426-1.689,1.927l1.499,3.267   c1.835-0.843,3.133-2.348,3.653-4.237c0.529-1.915,0.192-4.01-0.903-5.602c-0.456-0.662-0.979-1.325-1.51-2.001   c-1.65-2.091-3.208-4.066-2.844-6.296c0.339-2.073,2.281-4.139,3.839-5.275l-2.116-2.9c-1.071,0.779-4.62,3.638-5.27,7.596   c-0.62,3.792,1.703,6.736,3.571,9.102C-92.232,38.484-91.757,39.084-91.345,39.685z"/>
		<path d="M-83.458,38.231c0.234,0.339,0.306,0.834,0.188,1.263c-0.114,0.412-0.388,0.722-0.812,0.916l1.498,3.268   c1.396-0.642,2.381-1.787,2.777-3.229c0.402-1.452,0.142-3.041-0.689-4.252c-0.314-0.456-0.672-0.912-1.036-1.375   c-1.242-1.573-1.982-2.613-1.796-3.771c0.163-0.986,1.105-2.258,2.348-3.161l-2.116-2.905c-0.767,0.56-3.303,2.605-3.776,5.485   c-0.456,2.806,1.193,4.898,2.52,6.579C-84.038,37.447-83.728,37.839-83.458,38.231z"/>
		<path d="M64.036,59.064h0.74V42.607c0-0.135-0.073-0.26-0.191-0.324l-14.411-7.98l24.798-2.555l-0.077-0.736l-25.854,2.664   L30.646,23.488l45.236-6.336l-0.102-0.734l-46.212,6.473l-6.468-3.582l-0.358,0.65l41.294,22.865V59.064z"/>
		<path d="M79.853,10.791c-0.081,0-0.162,0.004-0.241,0.008l-59.284,3.969c-0.06-0.002-0.119-0.004-0.177-0.004   c-0.447,0-0.896,0.082-1.323,0.256c-1.355,0.549-2.272,1.838-2.272,3.303v44.271c0,1.334,0.741,2.562,1.924,3.18l43.853,23.021   c0.522,0.277,1.098,0.414,1.67,0.414c0.646,0,1.287-0.176,1.859-0.52c1.073-0.65,1.732-1.816,1.732-3.074V64.654   c2.326-0.439,6.249-1.191,12.937-2.473c1.691-0.322,2.916-1.803,2.916-3.527v-44.27c0-0.996-0.412-1.945-1.14-2.627   C81.638,11.135,80.761,10.791,79.853,10.791z M79.853,58.654l-15.852,3.035v23.926L20.147,62.594V18.322l0.054,0.055l59.651-3.992   V58.654z"/>
	</g>
</svg>